<?xml version="1.0" encoding="iso-8859-1"?>
<!-- Generator: Adobe Illustrator 19.0.0, SVG Export Plug-In . SVG Version: 6.00 Build 0)  -->
<svg version="1.1" id="Capa_1" xmlns="http://www.w3.org/2000/svg" xmlns:xlink="http://www.w3.org/1999/xlink" x="0px" y="0px"
	 viewBox="0 0 512 512" style="enable-background:new 0 0 512 512;" xml:space="preserve">
<g>
	<g>
		<path d="M477.867,153.6h-77.022c20.804-15.573,34.355-40.337,34.355-68.267c0-32.93-26.795-59.733-59.733-59.733H358.4
			c-12.049,0-23.817,5.675-34.91,14.677C310.238,15.778,284.459,0,256,0s-54.238,15.778-67.49,40.277
			C177.417,31.275,165.649,25.6,153.6,25.6h-17.067C103.595,25.6,76.8,52.403,76.8,85.333c0,27.93,13.551,52.693,34.355,68.267
			H34.133c-4.71,0-8.533,3.814-8.533,8.533v85.333c0,4.719,3.823,8.533,8.533,8.533h8.533v247.467c0,4.719,3.823,8.533,8.533,8.533
			h145.067V256h17.067v256h85.333V256h17.067v256H460.8c4.71,0,8.533-3.814,8.533-8.533V256h8.533c4.71,0,8.533-3.814,8.533-8.533
			v-85.333C486.4,157.414,482.577,153.6,477.867,153.6z M170.667,477.867H85.333c-4.71,0-8.533-3.814-8.533-8.533V384
			c0-4.719,3.823-8.533,8.533-8.533s8.533,3.814,8.533,8.533v76.8h76.8c4.71,0,8.533,3.814,8.533,8.533
			S175.377,477.867,170.667,477.867z M196.267,238.933H51.2h-8.533v-68.267h119.467h34.133V238.933z M196.267,153.6h-34.133
			c-37.641,0-68.267-30.626-68.267-68.267c0-23.526,19.14-42.667,42.667-42.667H153.6c10.223,0,20.924,6.724,31.352,17.118
			c0.188,0.23,0.316,0.495,0.529,0.708c25.685,25.89,47.957,71.663,57.557,93.107H196.267z M201.719,52.821
			c-0.085-0.094-0.162-0.205-0.247-0.29c9.523-21.41,30.831-35.465,54.528-35.465s45.005,14.054,54.528,35.465
			c-0.085,0.094-0.162,0.196-0.247,0.29c-24.055,26.035-43.725,64.614-54.281,87.765C245.444,117.436,225.775,78.857,201.719,52.821
			z M268.954,153.6c9.591-21.436,31.846-67.183,57.566-93.107c0.23-0.23,0.367-0.512,0.572-0.759
			c10.411-10.359,21.103-17.067,31.309-17.067h17.067c23.526,0,42.667,19.14,42.667,42.667c0,37.641-30.626,68.267-68.267,68.267
			h-34.133H268.954z M435.2,469.333c0,4.719-3.823,8.533-8.533,8.533h-85.333c-4.71,0-8.533-3.814-8.533-8.533
			s3.823-8.533,8.533-8.533h76.8V384c0-4.719,3.823-8.533,8.533-8.533s8.533,3.814,8.533,8.533V469.333z M469.333,238.933H460.8
			H315.733v-68.267h34.133h119.467V238.933z"/>
	</g>
</g>
<g>
</g>
<g>
</g>
<g>
</g>
<g>
</g>
<g>
</g>
<g>
</g>
<g>
</g>
<g>
</g>
<g>
</g>
<g>
</g>
<g>
</g>
<g>
</g>
<g>
</g>
<g>
</g>
<g>
</g>
</svg>
